<svg width="576" height="512" viewBox="0 0 576 512" fill="none" xmlns="http://www.w3.org/2000/svg">
<path fill-rule="evenodd" clip-rule="evenodd" d="M448 64H552C565.3 64 576 74.7 576 88V144C576 179.7 553.4 216.4 514.1 244.7C482.7 267.4 444.4 281.8 404.1 286.4C372.7 338.5 336 360 336 360V432H384C419.3 432 448 452.7 448 488V500C448 506.6 442.6 512 436 512H140C133.4 512 128 506.6 128 500V488C128 452.7 156.7 432 192 432H240V360C240 360 203.3 338.5 171.9 286.4C131.7 281.8 93.4 267.4 61.9 244.7C22.5 216.4 0 179.7 0 144V88C0 74.7 10.7 64 24 64H128V24C128 10.7 138.7 0 152 0H424C437.3 0 448 10.7 448 24V64ZM64 144C64 155.6 74.9 175.2 99.3 192.8C111.8 201.8 125.9 209 141 214.2C134 189.2 129.2 160.6 128.2 128H64V144ZM476.7 192.8C494.3 180.1 512 160.1 512 144V128H447.7C446.7 160.6 441.9 189.2 434.9 214.2C450 209 464.2 201.8 476.7 192.8ZM297.669 85.9844C324.168 69.7226 367.094 65.2502 388.691 64.0215C395.951 63.6106 402.004 69.1536 402 76.1506V209.627C402 216.039 396.825 221.389 390.169 221.74C370.673 222.768 331.243 226.521 303.978 240.278C299.781 242.396 294.804 239.511 294.804 234.948V91.1877C294.804 89.1016 295.84 87.1064 297.669 85.9844ZM188.313 64.0215C209.91 65.2541 252.836 69.7226 279.331 85.9844C281.164 87.1104 282.196 89.0265 282.196 91.1165V234.976C282.196 239.527 277.235 242.407 273.049 240.294C245.785 226.529 206.335 222.772 186.831 221.744C180.175 221.397 175 216.047 175 209.631V76.1506C175 69.1536 181.053 63.6106 188.313 64.0215Z" fill="#663399"/>
</svg>
