<svg width="48" height="48" viewBox="0 0 48 48" fill="none" xmlns="http://www.w3.org/2000/svg">
<path fill-rule="evenodd" clip-rule="evenodd" d="M37.3334 6H46.0003C47.1072 6 48 7.0032 48 8.25024V13.5005C48 16.847 46.1165 20.2877 42.8419 22.9411C40.2088 25.0705 37.0344 26.4242 33.6749 26.8502C31.0579 31.7347 28.0003 33.7498 28.0003 33.7498V40.4995H31.9997C34.9421 40.4995 37.3334 42.4406 37.3334 45.7507V46.8749C37.3334 47.4941 36.8832 48 36.3331 48H11.6669C11.1168 48 10.6666 47.4941 10.6666 46.8749V45.7498C10.6666 42.4406 13.0579 40.4995 16.0003 40.4995H19.9997V33.7507C19.9997 33.7507 16.9421 31.7347 14.3251 26.8502C10.9665 26.421 7.79291 25.0677 5.15808 22.9411C1.87488 20.2867 0 16.847 0 13.5005V8.24928C0 7.00416 0.89184 6 1.99968 6H10.6666V2.25024C10.6666 1.00224 11.5584 0 12.6662 0H35.3338C36.4416 0 37.3334 1.0032 37.3334 2.25024V6ZM5.33376 13.5005C5.33376 14.5872 6.24192 16.4246 8.2752 18.0749C9.32233 18.9202 10.4948 19.5971 11.7504 20.0813C11.1667 17.7379 10.7664 15.0566 10.6829 12H5.33376V13.5005ZM39.7248 18.0749C41.1917 16.8845 42.6662 15.0096 42.6662 13.4995V12H37.3085C37.225 15.0566 36.8246 17.7379 36.2419 20.0813C37.4999 19.5971 38.6749 18.9202 39.7248 18.0749V18.0749ZM29.7264 9.60096C30.3773 9.75072 30.9994 10.2749 31.3296 11.0525C31.6608 11.8301 31.6099 12.6461 31.2691 13.2269L33.408 18.2544C33.5376 18.5578 33.672 19.3872 33.024 19.6685C32.9259 19.7091 32.8206 19.7296 32.7144 19.7288C32.6082 19.728 32.5032 19.7058 32.4058 19.6637L29.2435 18.3878C27.6547 17.7485 25.9978 17.736 24.576 18.3542L23.8464 18.671C23.9178 19.0496 24.0295 19.4193 24.1795 19.7741C24.5866 20.7302 25.2163 21.5021 25.943 22.0253C26.6438 22.5274 26.6544 23.6861 25.9766 23.9808L24.0451 24.8208C23.737 24.9552 23.353 24.8736 23.0678 24.5808C21.86 23.3292 20.9664 21.8088 20.4605 20.1446L19.584 20.5248C18.6653 20.9242 17.519 20.3059 17.0246 19.1434L15.6806 15.9859C15.1862 14.8243 15.5309 13.5571 16.4496 13.1578L21.4416 10.9862C22.8634 10.368 23.9952 9.14304 24.6269 7.53792L25.8864 4.3392C25.9228 4.23886 25.9788 4.14677 26.0511 4.06831C26.1235 3.98986 26.2108 3.9266 26.3078 3.88224C26.9578 3.59904 27.4656 4.28544 27.5875 4.57344L29.7264 9.6V9.60096ZM29.5834 16.2922L30.8122 16.7885L26.855 7.48608L26.3654 8.73024C25.5658 10.7616 24.1354 12.311 22.3373 13.0925L23.6813 16.249C25.4784 15.4675 27.575 15.4829 29.5834 16.2931V16.2922Z" fill="#663399"/>
</svg>
