<svg width="48" height="48" viewBox="0 0 48 48" fill="none" xmlns="http://www.w3.org/2000/svg">
<path d="M20 13C20 12.45 19.55 12 19 12C18.45 12 18 12.45 18 13C18 13.55 18.45 14 19 14C19.55 14 20 13.55 20 13Z" fill="#A48E39"/>
<path d="M18 35C18 35.55 18.45 36 19 36C19.55 36 20 35.55 20 35C20 34.45 19.55 34 19 34C18.45 34 18 34.45 18 35Z" fill="#A48E39"/>
<path d="M34 17C34 16.45 33.55 16 33 16C32.45 16 32 16.45 32 17C32 17.55 32.45 18 33 18C33.55 18 34 17.55 34 17Z" fill="#A48E39"/>
<path fill-rule="evenodd" clip-rule="evenodd" d="M24.0017 1.0541e-07C20.85 -0.000295269 17.729 0.620179 14.8171 1.82606C11.9051 3.03195 9.2592 4.79961 7.03043 7.02808C4.80165 9.25655 3.03367 11.9022 1.82738 14.814C0.621093 17.7257 0.000143838 20.8466 1.01792e-07 23.9983C-0.000290189 27.1504 0.62031 30.2716 1.82641 33.1837C3.0325 36.0959 4.80048 38.7419 7.0293 40.9707C9.25812 43.1996 11.9041 44.9675 14.8163 46.1736C17.7284 47.3797 20.8497 48.0003 24.0017 48C27.1535 47.9998 30.2743 47.3789 33.186 46.1726C36.0978 44.9663 38.7435 43.1983 40.9719 40.9695C43.2004 38.7407 44.968 36.0949 46.1739 33.1829C47.3798 30.271 48.0003 27.1501 48 23.9983C47.9997 17.6337 45.4712 11.5298 40.9707 7.0293C36.4703 2.5288 30.3664 0.000303466 24.0017 1.0541e-07ZM33 12C35.7625 12 38 14.2375 38 17C38 19.2 36.575 21.0688 34.6 21.7437C34.5687 23.5 34.125 24.9 33.25 25.9875C31.4875 28.175 28.5 28.4563 25.8625 28.7L25.8201 28.704C24.2296 28.8525 22.7348 28.992 21.7313 29.5C21.2875 29.725 20.9937 30.0125 20.8 30.3375C22.675 31.0562 24 32.875 24 35C24 37.7625 21.7625 40 19 40C16.2375 40 14 37.7625 14 35C14 32.7625 15.4688 30.8687 17.5 30.225V17.7687C15.4688 17.1313 14 15.2375 14 13C14 10.2375 16.2375 8 19 8C21.7625 8 24 10.2375 24 13C24 15.2375 22.5312 17.1313 20.5 17.7687V26.7687C21.9937 26.05 23.8188 25.875 25.5812 25.7125C27.825 25.5063 29.9438 25.3063 30.9062 24.1063C31.3312 23.5813 31.5562 22.8062 31.5938 21.8C29.5187 21.1938 28 19.275 28 17C28 14.2375 30.2375 12 33 12Z" fill="#A48E39"/>
</svg>
