<svg viewBox="0 0 48 48" fill="none" xmlns="http://www.w3.org/2000/svg">
  <path d="M24 0a24 24 0 100 48 24 24 0 000-48zm2 7.6c.4 0 1 .1 1.6.4 1 .4 1.7 1 1.7 1.4 0 .3.6.5 1.3.3 2.2-.6 4 2 4 5.7 0 1.8.5 3.6 1 4.1.5.5.8 2.8.8 6.1 0 4.7-.2 5.5-1.8 7.6a11 11 0 00-2 4.4c-.3 2.5-1.6 2.6-1.8 0-.2-1.2.4-2.5 1.8-4.3 2-2.3 2-2.9 2-7.7 0-6.3-.8-7.3-6.5-7.3-3.3 0-3.6 0-3.6 1.6 0 1.9 1.7 3 4.4 3 2.2 0 2.3 1.2.1 1.7a10 10 0 00-3.7 2.8 12.4 12.4 0 01-2.4 2.4c-.9 0-.3-1.7 1.4-3.8 2-2.6 2.2-2.5-5-2.6h-4.9v2.8c0 2.2.5 3.4 2 5.1 1.6 1.8 2 3 2 5 0 2.7-.6 4-1.5 3.1-.3-.2-.5-1.4-.5-2.7 0-1.3-.7-3.4-1.8-5-1.7-2.6-1.9-3.5-2.1-10.1-.2-6.7-.2-7.4 1.2-8.7.8-.8 2-1.4 2.6-1.2.6 0 1.5-.3 2-.8.3-.6 1.4-1 2.3-1.1.9 0 2.4-.6 3.5-1.3.7-.5 1.3-.8 1.8-.9zm.2 1.9c-1.6 0-1.7.2-1.7 3.7s.1 3.7 1.7 3.7c1.6 0 1.7-.2 1.7-3.7s0-3.7-1.7-3.7zm-5.4 2c-1.6 0-1.7.1-1.7 5 0 5 0 5.1 1.7 5.1s1.7 0 1.7-5 0-5.1-1.7-5.1zm10.2 0c-1.6 0-1.7.3-1.7 2.7 0 2.4.1 2.7 1.7 2.7 1.5 0 1.7-.3 1.7-2.7 0-2.4-.2-2.7-1.7-2.7zm-14.9 2c-1.6 0-1.7.2-1.7 4 0 4 0 4.1 1.7 4.1 1.6 0 1.7-.1 1.7-4s0-4-1.7-4z" fill="#A48E39"/>
</svg>
