<svg viewBox="0 0 48 48" fill="none" xmlns="http://www.w3.org/2000/svg">
  <g clip-path="url(#clip0)">
    <path d="M24 0a24 24 0 100 48 24 24 0 000-48zm9 9.6c3.4 0 6.6 3.7 5 7.2l-.4 1-4.1-3.4-4.1-3.4 1.2-.7c.8-.5 1.6-.7 2.4-.7zm-18.6 0c1-.1 2.1.1 3 .7l1.2.7-3.5 3-4.2 3.4c-.5.4-.6.4-1-.7-.6-1.6-.5-2.7.4-4.3a5.3 5.3 0 014.1-2.8zm9.6 3.7c2.8 0 3.4.1 5.5 1.2 2.8 1.4 4.7 3.4 6 6.2.8 1.7 1 2.6 1 5.1 0 2.8-.1 3.4-1 5.3l-1.2 2.3 1.2 1.3c1.4 1.5 1.5 1.8.3 3-1.1 1-1.4 1-3-.4l-1.2-1.2-2.3 1.1c-2 1-2.6 1.1-5.3 1.1-2.7 0-3.4-.1-5.3-1L16.5 36l-1.3 1.2c-1.6 1.4-1.8 1.5-3 .3-1.1-1.1-1.1-1.4.3-3l1.2-1.2-1-2.3c-1-1.9-1.2-2.5-1.2-5.3 0-2.7.1-3.3 1.2-5.5 1.4-2.8 3.3-4.7 6.2-6 1.7-.8 2.6-1 5.1-1zm0 2.5c-.6 0-1.2.2-2.2.4a9.9 9.9 0 00-7.4 7.4c-.5 2-.5 2.4 0 4.5 1.5 5.9 7 8.8 13 7 1.4-.4 3.8-2.2 5-3.8.3-.6 1-2 1.2-3.3.6-2 .5-2.4 0-4.4a9.9 9.9 0 00-7.3-7.4c-1-.2-1.7-.4-2.3-.4zm-1.3 3h2.6v3.6l.2 3.6 1.7 1.5c1.7 1.5 1.7 1.5 1 2.4-.3.6-.7 1-.8 1-.2 0-1.2-.8-2.4-1.7-1.1-.9-2.2-2-2.3-2.4v-8z" fill="#C037C0"/>
  </g>
  <defs>
    <clipPath id="clip0">
      <path fill="#fff" d="M0 0h48v48H0z"/>
    </clipPath>
  </defs>
</svg>
