<svg viewBox="0 0 48 48" fill="none" xmlns="http://www.w3.org/2000/svg">
  <path d="M19.55 18.13c0 2.4 2 4.37 4.45 4.37.35 0 .64-.28.64-.63a.63.63 0 0 0-.64-.62 3.16 3.16 0 0 1-3.18-3.13.63.63 0 0 0-.64-.62.63.63 0 0 0-.63.63Z" fill="#639"/>
  <path fill-rule="evenodd" clip-rule="evenodd" d="M37.33 6H46c1.1 0 2 1 2 2.25v5.25c0 3.35-1.88 6.79-5.16 9.44a18.22 18.22 0 0 1-9.17 3.91c-2.61 4.88-5.67 6.9-5.67 6.9v6.75h4c2.94 0 5.33 1.94 5.33 5.25v1.13c0 .61-.45 1.12-1 1.12H11.67c-.55 0-1-.5-1-1.13v-1.12c0-3.3 2.39-5.25 5.33-5.25h4v-6.75s-3.06-2.02-5.67-6.9a18.29 18.29 0 0 1-9.17-3.9C1.87 20.28 0 16.84 0 13.5V8.25C0 7 .9 6 2 6h8.67V2.25c0-1.25.89-2.25 2-2.25h22.66c1.11 0 2 1 2 2.25V6Zm-32 7.5c0 1.09.91 2.92 2.95 4.57 1.04.85 2.21 1.53 3.47 2.01A37.57 37.57 0 0 1 10.68 12H5.33v1.5Zm34.4 4.57c1.46-1.19 2.94-3.06 2.94-4.57V12H37.3a37.63 37.63 0 0 1-1.07 8.08 13 13 0 0 0 3.48-2Zm-16.9-12.2c.37-1.18 2.02-1.13 2.33 0a21 21 0 0 0 3.43 6.5c1.32 1.84 2.41 3.38 2.41 5.67A6.97 6.97 0 0 1 24 25c-3.87 0-7-3.11-7-6.96 0-2.28 1.1-3.82 2.41-5.67 1.19-1.67 2.54-3.58 3.43-6.5Z" fill="#639"/>
</svg>
