<svg width="576" height="512" viewBox="0 0 576 512" fill="none" xmlns="http://www.w3.org/2000/svg">
<path d="M288.5 79.5606L288.544 246.264C329.342 225.875 363.653 177.876 365.09 111.633L288.5 79.5606Z" fill="#663399"/>
<path fill-rule="evenodd" clip-rule="evenodd" d="M448 64H552C565.3 64 576 74.7 576 88V144C576 179.7 553.4 216.4 514.1 244.7C482.7 267.4 444.4 281.8 404.1 286.4C372.7 338.5 336 360 336 360V432H384C419.3 432 448 452.7 448 488V500C448 506.6 442.6 512 436 512H140C133.4 512 128 506.6 128 500V488C128 452.7 156.7 432 192 432H240V360C240 360 203.3 338.5 171.9 286.4C131.7 281.8 93.4 267.4 61.9 244.7C22.5 216.4 0 179.7 0 144V88C0 74.7 10.7 64 24 64H128V24C128 10.7 138.7 0 152 0H424C437.3 0 448 10.7 448 24V64ZM64 144C64 155.6 74.9 175.2 99.3 192.8C111.8 201.8 125.9 209 141 214.2C134 189.2 129.2 160.6 128.2 128H64V144ZM476.7 192.8C494.3 180.1 512 160.1 512 144V128H447.7C446.7 160.6 441.9 189.2 434.9 214.2C450 209 464.2 201.8 476.7 192.8ZM296.555 52.608L380.155 87.6114C387.906 90.8492 393 98.5062 393 106.995C393 203.823 333.827 257.772 296.512 273.392C291.374 275.536 285.583 275.536 280.445 273.392C233.855 253.878 184 193.847 184 106.995C184 98.5062 189.094 90.8492 196.888 87.6114L280.488 52.608C283.035 51.5464 285.765 51 288.522 51C291.279 51 294.009 51.5464 296.555 52.608Z" fill="#663399"/>
</svg>
