<svg viewBox="0 0 48 48" fill="none" xmlns="http://www.w3.org/2000/svg">
  <g clip-path="url(#clip0)">
    <path d="M24 0a24 24 0 100 48 24 24 0 000-48zm-8.4 8.5h4V14h8.2l.1-1.7.2-2.5v-1H32v5.1h1.3c1.6.2 2.5.7 3.3 2l.5.8v10c0 9.4 0 10-.4 10.6a4 4 0 01-1.8 1.9c-.7.3-.8.3-10.6.4L14 39.4c-1.4-.5-2.5-1.5-2.9-2.7 0-.4-.2-4-.2-10.2V17l.5-1c.6-1.3 1.8-2.1 3.3-2.1h.6l.2-1.5V8.5zM30 16.4H14.3l-.3.5c-.3.3-.4.7-.4 1.8v1.4h20.9v-1.4c0-1.6-.3-2-1.3-2.2l-3.1-.1zm-16.5 6.4V36l.5.4.4.5h19.1l.4-.5.5-.4V22.8H13.6zm17.7.2c.2 0 .4 0 .7.3l.7.8c.4.9-.2 1.8-5 6.6a32 32 0 01-5.9 5.4s-.3 0-.5-.2c-.5-.2-4-3.6-4.5-4.5-.5-.8-.4-1.4.3-2.1 1-1 1.9-.8 3.8 1l1.1 1.1 4.1-4.1c3.4-3.4 4.5-4.3 5.2-4.3z" fill="#3D9696"/>
  </g>
  <defs>
    <clipPath id="clip0">
      <path fill="#fff" d="M0 0h48v48H0z"/>
    </clipPath>
  </defs>
</svg>
