<svg viewBox="0 0 48 48" fill="none" xmlns="http://www.w3.org/2000/svg">
  <path fill-rule="evenodd" clip-rule="evenodd" d="M37.3 6H46c1.1 0 2 1 2 2.3v5.2c0 3.3-1.9 6.8-5.2 9.4a18.2 18.2 0 01-9.1 4 19.8 19.8 0 01-5.7 6.9v6.7h4c3 0 5.3 2 5.3 5.3v1c0 .7-.4 1.2-1 1.2H11.7c-.6 0-1-.5-1-1.1v-1.1c0-3.4 2.4-5.3 5.3-5.3h4v-6.8s-3-2-5.7-6.9c-3.3-.4-6.5-1.7-9.1-3.9C1.9 20.3 0 17 0 13.5V8.2C0 7 .9 6 2 6h8.7V2.2c0-1.2.9-2.2 2-2.2h22.6c1.1 0 2 1 2 2.3V6zm-32 7.5c0 1 1 3 3 4.6a13 13 0 003.4 2c-.5-2.4-1-5-1-8.1H5.3v1.5zm34.4 4.6c1.5-1.2 3-3 3-4.6V12h-5.4c0 3-.5 5.7-1 8a13 13 0 003.4-2zm-19-4v-1.3h-3V9.6h-1.5v3.2h-3v1.4h3v3.2h1.5v-3.2h3zm11 7.9v-1.5h-3.1V8.3h-1.7l-.5.5a13.2 13.2 0 01-2.2 1.5l-1.2.3v1.6c.4 0 .9-.1 1.4-.4a9 9 0 001.5-.7c.5-.3.8-.6 1-.9v10.3h-3.4V22h8.1z" fill="#639"/>
</svg>
