<svg width="576" height="512" viewBox="0 0 576 512" fill="none" xmlns="http://www.w3.org/2000/svg">
<path d="M261.79 152.5C261.79 167.228 273.772 179.21 288.5 179.21C303.228 179.21 315.21 167.228 315.21 152.5C315.21 137.772 303.228 125.79 288.5 125.79C273.772 125.79 261.79 137.772 261.79 152.5Z" fill="#663399"/>
<path fill-rule="evenodd" clip-rule="evenodd" d="M211.71 152.5C211.71 194.948 246.061 229.29 288.5 229.29C330.948 229.29 365.29 194.939 365.29 152.5C365.29 110.052 330.939 75.7097 288.5 75.7097C246.052 75.7097 211.71 110.061 211.71 152.5ZM235.081 152.5C235.081 122.998 258.998 99.0806 288.5 99.0806C318.002 99.0806 341.919 122.998 341.919 152.5C341.919 182.002 318.002 205.919 288.5 205.919C258.998 205.919 235.081 182.002 235.081 152.5Z" fill="#663399"/>
<path fill-rule="evenodd" clip-rule="evenodd" d="M448 64H552C565.3 64 576 74.7 576 88V144C576 179.7 553.4 216.4 514.1 244.7C482.7 267.4 444.4 281.8 404.1 286.4C372.7 338.5 336 360 336 360V432H384C419.3 432 448 452.7 448 488V500C448 506.6 442.6 512 436 512H140C133.4 512 128 506.6 128 500V488C128 452.7 156.7 432 192 432H240V360C240 360 203.3 338.5 171.9 286.4C131.7 281.8 93.4 267.4 61.9 244.7C22.5 216.4 0 179.7 0 144V88C0 74.7 10.7 64 24 64H128V24C128 10.7 138.7 0 152 0H424C437.3 0 448 10.7 448 24V64ZM64 144C64 155.6 74.9 175.2 99.3 192.8C111.8 201.8 125.9 209 141 214.2C134 189.2 129.2 160.6 128.2 128H64V144ZM476.7 192.8C494.3 180.1 512 160.1 512 144V128H447.7C446.7 160.6 441.9 189.2 434.9 214.2C450 209 464.2 201.8 476.7 192.8ZM185 152.5C185 95.3371 231.337 49 288.5 49C345.663 49 392 95.3371 392 152.5C392 209.663 345.663 256 288.5 256C231.337 256 185 209.663 185 152.5Z" fill="#663399"/>
</svg>
