<svg viewBox="0 0 48 48" fill="none" xmlns="http://www.w3.org/2000/svg">
  <path fill-rule="evenodd" clip-rule="evenodd" d="M37.3 6H46c1.1 0 2 1 2 2.3v5.2c0 3.3-1.9 6.8-5.2 9.4a18.2 18.2 0 01-9.1 4C31 31.7 28 33.7 28 33.7v6.8h4c3 0 5.3 2 5.3 5.3v1c0 .7-.4 1.2-1 1.2H11.7c-.6 0-1-.5-1-1.1v-1.2c0-3.3 2.4-5.2 5.3-5.2h4v-6.7s-3-2-5.7-7c-3.3-.4-6.5-1.7-9.1-3.9C1.9 20.3 0 17 0 13.5V8.2C0 7 .9 6 2 6h8.7V2.3c0-1.3.9-2.3 2-2.3h22.6c1.1 0 2 1 2 2.3V6zm-32 7.5c0 1 1 3 3 4.6a13 13 0 003.5 2c-.6-2.4-1-5-1.1-8.1H5.3v1.5zm34.4 4.6c1.5-1.2 3-3 3-4.6V12h-5.4c0 3-.5 5.7-1 8a13 13 0 003.4-2zM30.1 21c0 .3 0 .6.3.8.2.3.3.6.3 1 0 .5-.3 1-.8 1.3-.6.2-1 .7-1.4 1.2-.4.5-.8 1-1.4 1-.6 0-1-.4-1.2-1a6 6 0 00-3.3 0c-.3.5-.7.9-1.3.9-.3 0-.6-.2-1-.4-.5-.2-1.1-.5-1.7-.5-.9.1-1.3-.5-1.3-1.1l.1-.7c.2-.3.1-.6 0-1 0-.5 0-1 .7-1.5.4-.2.7-.4.9-.7-.4-1.4-.2-3.9 1.5-6.4 1-1.6 1-2.4 1-4V8.1c0-1.3.5-3.4 2.7-3.4 2 0 2.6 2 2.6 4v.7c0 1-.1 2.2.8 3.3a9.9 9.9 0 012.1 7.4c.2.2.3.6.4 1V21zM23 12c.2.3.4.4.6.4.3 0 .5-.1.8-.4l.3-.2.3-.2c.3-.2.6-.4.6-.6 0-.3-.3-.4-.6-.6l-.3-.1a4 4 0 01-.5-.3l-.6-.2-.6.3a3.8 3.8 0 01-.6.5c-.2.1-.4.2-.4.4 0 .3.3.5.6.7l.2.2.2.2zm2.2-2c.3-.7.3-2.1-.4-2.3-.6 0-1 .7-1 1.5l.3.1c0-.4.3-.9.5-.8.5 0 .5.8.4 1.3l.2.1zm-2.1-.7c0-.7-.3-1.4-.8-1.3-.5.2-.5 1.5-.2 2.1l.2-.2c-.1-.1-.2-1 .1-1.1.3-.1.4.4.5.7l.2-.2zm-4.5 15.4c.3 0 .8 0 2.1.7.9.4 1.6-.4 1.4-1.2 0-.5-.3-.8-.6-1.1l-.5-.9c-.4-1.2-1-2.5-1.6-1.6-.2.3-.4.7-1 1-.5.2-.5.4-.4 1v1.1c-.3.5-.1 1 .5 1h.1zm4-.8c1 .6 2.3.4 3.3-.2l.1-.4.3-1v-1c0-1 0-1.8.7-2 .2-1.5 2-.3 2.1.6h.2c0-.7-.5-1.3-1-1.5 0-1.2 0-2.2-.7-3.3 0 0 .5 2.2.1 3.1 0-.7-.4-1.8-.9-3-.5-1-1-2.3-1.1-3.4l-.5.3-.2.2-.3.2c-.4.3-.7.5-1.1.5-.4 0-.6-.2-1-.5v-.1L22 12a6 6 0 01-.5 2.8c-1 1.8-1.1 3.2-1.2 4.1-.2-.4-.5-1.9 0-3.6-1 2-.8 3.6 0 4.3l.8.7c.4.4.9.7 1.1 1.1.4.6 0 1.2-.3 1.4l.6 1.1zM28 25c.4-.4.8-1 1.5-1.4.7-.3.8-1 .5-1.3-.3-.4-.4-.6-.4-1-.2-.5-.2-.7-.7-.7-.3.4-1.6 1-1.8-.5-.2 0-.2.6-.3 1.3v1l-.3 1-.2 1.4c.1.8 1 1.2 1.6.3h.1zm-5.5-13.7c.2.3.6.6 1 .6s.7-.2 1-.4l.6-.3c.1-.1 0-.5-.1-.4a4 4 0 00-.6.4l-.8.4c-.4 0-.7-.3-1-.6-.1-.2-.3 0-.2.2z" fill="#639"/>
</svg>
